<svg xmlns="http://www.w3.org/2000/svg" viewBox="0 0 200 200" width="200" height="200">
  <!-- Outer green C -->
  <path d="M100 10 A90 90 0 1 0 100 190 A90 90 0 0 0 180 100 L140 100 A50 50 0 0 1 100 150 A50 50 0 1 1 100 50 A50 50 0 0 1 140 100 L180 100 A90 90 0 0 0 100 10" fill="#4CAF50"/>
  <!-- Inner red C -->
  <path d="M100 60 A40 40 0 1 0 100 140 A40 40 0 0 0 130 100 L110 100 A20 20 0 0 1 100 120 A20 20 0 1 1 100 80 A20 20 0 0 1 110 100 L130 100 A40 40 0 0 0 100 60" fill="#E53935"/>
</svg>
