<?xml version="1.0" encoding="UTF-8"?>
<svg version="1.1" xmlns="http://www.w3.org/2000/svg" width="659" height="671">
<path d="M0 0 C3.32284545 0.01611373 6.64447535 0.00000592 9.96728516 -0.01904297 C30.32284945 -0.03998433 50.53956382 1.79288326 70.44775391 6.14111328 C71.6466626 6.39715332 72.84557129 6.65319336 74.08081055 6.91699219 C132.87906517 19.82079593 186.80696059 47.69468125 230.90087891 88.69189453 C233.6115342 91.19598919 236.36549001 93.64038173 239.13525391 96.07861328 C242.67980456 99.2630826 245.87102251 102.55207945 248.93603516 106.19580078 C251.19201818 108.82077481 253.57162951 111.3119101 255.94775391 113.82861328 C272.46496177 131.63645208 285.72554866 152.42557293 297.82275391 173.39111328 C298.38905518 174.37047852 298.38905518 174.37047852 298.96679688 175.36962891 C326.82275391 224.09465661 326.82275391 224.09465661 326.82275391 246.39111328 C290.19275391 246.39111328 253.56275391 246.39111328 215.82275391 246.39111328 C213.18275391 240.78111328 210.54275391 235.17111328 207.82275391 229.39111328 C206.28027152 226.49541016 204.76133486 223.68881978 203.07275391 220.89111328 C202.66355713 220.2051709 202.25436035 219.51922852 201.83276367 218.8125 C170.05912303 166.43391833 120.29073111 128.09294164 60.75830078 112.59326172 C0.42728052 97.90716667 -63.31807098 106.50834268 -116.625 138.87744141 C-150.24916983 160.00358374 -177.43510184 187.95187717 -197.17724609 222.39111328 C-197.82306641 223.50993896 -197.82306641 223.50993896 -198.48193359 224.65136719 C-216.10279742 255.53460087 -226.19165368 291.8240827 -227.17724609 327.39111328 C-227.21720703 328.64666016 -227.25716797 329.90220703 -227.29833984 331.19580078 C-228.61904877 393.32881328 -204.03461247 452.17100942 -161.53662109 496.91845703 C-146.39211863 512.65329326 -129.19443386 525.68334057 -110.17724609 536.39111328 C-109.47680176 536.79185059 -108.77635742 537.19258789 -108.0546875 537.60546875 C-72.97757856 557.52839534 -35.93517279 563.93390226 3.82275391 567.39111328 C3.82275391 601.71111328 3.82275391 636.03111328 3.82275391 671.39111328 C-73.90025264 671.39111328 -147.79947519 646.74445532 -208.17724609 597.39111328 C-208.71414062 596.95331543 -209.25103516 596.51551758 -209.80419922 596.06445312 C-228.68615902 580.5837698 -246.17858332 563.55696737 -260.9140625 544.04833984 C-262.15210471 542.42409738 -263.41506777 540.82327113 -264.68896484 539.22705078 C-287.05642928 511.05850449 -303.40289324 478.23492184 -315.17724609 444.39111328 C-315.46438477 443.57223633 -315.75152344 442.75335938 -316.04736328 441.90966797 C-326.0947598 412.88250914 -332.25236615 381.38857529 -332.38037109 350.63720703 C-332.3889212 348.98846336 -332.3889212 348.98846336 -332.39764404 347.30641174 C-332.40703779 344.98610375 -332.41360546 342.66578276 -332.41748047 340.34545898 C-332.42707642 336.88971856 -332.45810911 333.43460252 -332.48974609 329.97900391 C-332.58926041 309.27032389 -330.81320522 288.82926376 -326.36474609 268.57861328 C-326.10540283 267.36979492 -325.84605957 266.16097656 -325.57885742 264.91552734 C-312.69070322 206.13401533 -284.8850504 152.63545511 -244.17724609 108.39111328 C-242.65559331 106.68350981 -241.13476888 104.97516786 -239.61474609 103.26611328 C-233.20335806 96.15347968 -226.46208985 89.59992748 -219.17724609 83.39111328 C-218.24267578 82.57900391 -217.30810547 81.76689453 -216.34521484 80.93017578 C-172.54681032 43.08200368 -120.1957763 18.24344518 -63.73974609 6.14111328 C-62.67151611 5.90690674 -61.60328613 5.6727002 -60.50268555 5.43139648 C-40.52794595 1.33661157 -20.35736554 -0.11670399 0 0 Z " fill="#3EA80B" transform="translate(332.17724609375,-0.39111328125)"/>
<path d="M0 0 C0 14.19 0 28.38 0 43 C-3.774375 43.391875 -7.54875 43.78375 -11.4375 44.1875 C-43.52096099 47.89671485 -73.21432933 62.69868355 -93.6875 88.3046875 C-114.10562886 114.69902781 -123.57811397 146.3866916 -119.49609375 179.68359375 C-114.91881574 210.58806407 -98.733697 239.6907399 -73.765625 258.703125 C-62.94316985 266.65236197 -51.62884496 272.48476404 -39 277 C-37.36417969 277.59941406 -37.36417969 277.59941406 -35.6953125 278.2109375 C-24.15219755 281.96456657 -12.00987298 282.70861581 0 284 C0 298.19 0 312.38 0 327 C-23.30708438 325.83464578 -23.30708438 325.83464578 -32.625 323.8125 C-33.67421631 323.59182861 -34.72343262 323.37115723 -35.80444336 323.14379883 C-51.23849666 319.77433477 -65.14998919 314.56139796 -79 307 C-80.06992188 306.4225 -81.13984375 305.845 -82.2421875 305.25 C-93.5811428 298.8884043 -103.58978073 290.93410699 -113 282 C-113.50144531 281.53110352 -114.00289062 281.06220703 -114.51953125 280.57910156 C-144.99092016 251.94266855 -162.27101772 211.65766674 -164 170 C-164.04125 169.09894531 -164.0825 168.19789063 -164.125 167.26953125 C-165.04103676 126.67765224 -150.43498525 87.61119627 -124 57 C-122.75089844 55.54787109 -122.75089844 55.54787109 -121.4765625 54.06640625 C-91.62294528 20.06999652 -50.62154786 3.44498405 -6.17211914 0.12011719 C-4.11749569 0.00649746 -2.05776262 0 0 0 Z " fill="#E10000" transform="translate(336,172)"/>
</svg>
